<?xml version="1.0" standalone="no"?>
<!DOCTYPE svg PUBLIC "-//W3C//DTD SVG 20010904//EN"
 "http://www.w3.org/TR/2001/REC-SVG-20010904/DTD/svg10.dtd">
<svg version="1.0" xmlns="http://www.w3.org/2000/svg"
 width="1024.000000pt" height="1024.000000pt" viewBox="0 0 1024.000000 1024.000000"
 preserveAspectRatio="xMidYMid meet">

<g transform="translate(0.000000,1024.000000) scale(0.100000,-0.100000)"
fill="#000000" stroke="none">
<path d="M4275 9670 c-8 -16 -15 -44 -15 -63 0 -18 -5 -38 -11 -44 -9 -9 -5
-14 17 -20 16 -4 35 -6 42 -4 8 1 24 -5 37 -13 35 -23 75 -21 75 4 0 13 -7 20
-19 20 -25 0 -37 18 -22 33 14 14 15 30 1 22 -13 -8 -43 22 -64 63 -9 17 -19
32 -21 32 -2 0 -11 -13 -20 -30z"/>
<path d="M5720 9510 c-12 -8 -11 -10 8 -10 13 0 52 -14 88 -30 l64 -31 28 26
c15 14 45 30 67 36 63 16 63 17 2 18 -35 1 -73 -6 -93 -15 -31 -15 -37 -15
-74 0 -46 18 -69 20 -90 6z"/>
<path d="M4829 9406 c-98 -85 -248 -239 -274 -278 -9 -16 -22 -28 -29 -28 -6
0 -35 16 -64 36 -30 20 -68 42 -85 49 -29 12 -34 11 -77 -18 -25 -17 -94 -78
-155 -137 -60 -58 -162 -145 -227 -193 -132 -101 -116 -99 -221 -21 -33 24
-69 44 -80 44 -15 -1 -38 -21 -67 -59 -178 -231 -315 -364 -357 -346 -10 5
-21 7 -25 7 -5 -1 -8 2 -8 8 0 5 13 10 29 10 23 0 29 4 28 19 -1 20 -43 36
-81 31 -25 -2 -12 17 26 40 l31 18 -46 7 c-41 6 -45 9 -42 33 1 14 10 31 19
38 19 13 14 18 -27 28 -23 5 -26 9 -17 25 7 14 6 20 -6 25 -11 4 -12 10 -5 25
12 22 5 32 -16 24 -13 -5 -13 -2 -4 15 14 27 14 32 -3 26 -9 -4 -18 7 -26 33
-20 62 -25 61 -31 -7 -4 -35 -11 -66 -18 -68 -7 -2 -8 -9 -1 -22 8 -15 6 -21
-7 -29 -17 -9 -16 -11 4 -33 24 -26 20 -42 -14 -52 -30 -10 -29 -24 2 -32 34
-8 32 -40 -4 -58 -41 -22 -48 -46 -13 -46 50 0 56 -15 14 -34 -21 -10 -46 -31
-56 -47 l-17 -29 40 6 c42 7 59 -9 22 -21 -11 -3 -32 -22 -47 -42 l-27 -36 24
6 c13 3 35 9 49 13 21 6 18 -1 -22 -43 -54 -55 -60 -68 -24 -51 20 8 28 7 41
-6 9 -9 28 -16 43 -16 26 -1 25 -2 -21 -45 -27 -25 -58 -45 -69 -45 -10 0 -16
5 -13 10 4 6 -8 10 -29 10 -33 0 -49 14 -26 22 6 2 6 9 0 17 -7 12 -15 13 -44
4 -20 -6 -36 -8 -36 -3 0 4 11 11 25 14 13 3 34 16 45 29 l21 22 -33 7 c-18 4
-43 4 -55 1 -32 -7 -28 4 7 22 38 20 32 31 -22 40 -39 7 -41 8 -22 22 16 12
17 15 4 23 -8 5 -21 10 -29 10 -10 0 -12 8 -7 32 3 17 3 29 0 25 -14 -14 -41
14 -55 55 l-14 43 -3 -65 c-2 -35 -8 -68 -15 -73 -9 -7 -9 -10 1 -14 17 -7 15
-33 -3 -33 -22 0 -18 -15 7 -32 l22 -15 -29 -27 c-20 -19 -24 -26 -12 -22 34
11 38 -5 7 -34 -40 -37 -40 -66 1 -74 l31 -6 -26 -31 c-14 -17 -26 -34 -26
-38 0 -10 39 -11 45 0 4 5 14 9 23 9 11 0 3 -13 -26 -43 -48 -49 -52 -60 -16
-47 14 6 35 10 47 10 19 -1 20 -2 7 -13 -8 -7 -28 -32 -43 -55 -24 -37 -25
-43 -10 -38 31 10 83 14 83 6 0 -4 -18 -32 -40 -63 -22 -30 -40 -62 -40 -70 0
-16 40 -16 83 2 16 6 31 11 33 11 5 0 -29 -43 -89 -116 l-29 -34 44 4 c23 2
50 7 58 10 11 5 16 0 17 -14 1 -11 -2 -22 -8 -25 -5 -4 -9 -15 -9 -25 0 -10
-18 -33 -40 -50 -23 -18 -39 -35 -36 -37 9 -9 116 -4 136 7 24 13 27 -2 4 -21
-8 -7 -24 -30 -35 -51 -23 -45 -11 -49 37 -13 l34 26 -10 -25 c-5 -14 -19 -44
-30 -67 -17 -32 -26 -40 -41 -36 -14 4 -19 1 -16 -8 7 -17 -34 -55 -61 -55
-16 0 -33 22 -78 103 -113 203 -119 211 -176 240 -29 15 -67 29 -85 33 -36 7
-38 14 -48 120 l-7 71 39 5 c79 11 153 60 153 103 0 36 -16 39 -40 5 -24 -33
-77 -60 -120 -60 -24 0 -28 5 -33 36 -3 20 -24 67 -47 104 -35 61 -39 72 -29
97 11 28 -2 91 -24 121 -17 23 -73 14 -106 -17 -43 -40 -38 -82 13 -123 l21
-18 -27 -22 c-42 -34 -129 -170 -118 -183 5 -6 7 -28 3 -47 -4 -28 0 -44 16
-66 11 -17 21 -33 21 -36 0 -3 14 -25 30 -48 17 -22 30 -49 30 -59 0 -10 5
-21 10 -24 6 -4 8 -10 5 -15 -3 -5 10 -6 28 -3 34 5 34 5 41 -38 3 -24 14 -66
23 -92 22 -63 14 -75 -73 -109 l-69 -26 0 -72 c0 -69 1 -73 35 -103 l35 -31
12 40 c6 21 12 51 12 65 1 23 7 28 44 37 52 14 135 76 143 108 3 13 4 42 2 64
l-4 41 41 -7 c59 -10 74 -21 96 -71 11 -25 43 -72 73 -103 29 -32 63 -77 75
-100 l22 -43 -50 -51 c-40 -41 -64 -82 -121 -206 -65 -140 -106 -208 -118
-195 -2 2 5 21 17 41 19 32 20 36 4 30 -15 -6 -14 -4 3 16 19 21 54 83 54 96
0 3 -10 -3 -22 -14 -13 -11 -43 -30 -67 -43 -45 -24 -46 -22 -8 32 10 16 17
31 13 34 -3 3 1 21 9 40 19 44 19 45 -3 34 -21 -12 -54 -24 -67 -26 -17 -3
-48 -15 -79 -31 -16 -8 -30 -13 -31 -12 -2 2 8 26 20 53 15 31 20 54 14 59 -5
6 -9 18 -9 28 0 16 -2 16 -21 -3 -11 -11 -27 -18 -35 -15 -8 3 -14 1 -14 -4 0
-5 -12 -13 -27 -16 -16 -4 -40 -16 -55 -26 -31 -22 -36 -14 -12 20 12 17 12
22 2 22 -7 0 -2 9 12 20 14 11 19 20 11 20 -11 0 -11 3 -1 15 7 8 10 15 7 15
-3 0 -2 13 3 30 l9 30 -37 -16 c-20 -9 -46 -17 -57 -20 -11 -2 -27 -13 -37
-24 -9 -11 -19 -20 -22 -20 -13 0 -5 39 13 61 10 13 21 34 25 47 7 20 5 21
-18 12 -15 -5 -39 -16 -55 -25 l-29 -14 1 34 c1 21 4 30 9 22 5 -8 8 -6 8 8 0
11 3 31 6 45 6 21 4 23 -7 13 -7 -7 -21 -13 -31 -13 -10 0 -18 -3 -18 -7 0 -5
-11 -13 -25 -20 -14 -6 -23 -7 -19 -2 3 5 1 9 -5 9 -5 0 -12 -6 -15 -12 -3 -7
-4 -1 -1 15 6 29 -11 38 -22 11 -5 -14 -8 -12 -19 7 -7 13 -13 35 -14 48 0 23
-1 24 -20 6 -19 -17 -21 -17 -47 0 -16 10 -47 34 -70 53 -50 40 -53 31 -17
-38 14 -28 24 -59 21 -69 -3 -14 0 -17 13 -14 24 6 33 -12 15 -27 -8 -7 -15
-21 -15 -32 0 -15 5 -19 20 -15 11 3 20 1 20 -5 0 -5 4 -7 9 -4 21 13 18 -36
-4 -69 l-24 -34 25 9 c67 26 85 -7 38 -71 -24 -33 -24 -34 -5 -37 12 -2 35 7
52 19 18 12 30 18 28 13 -21 -44 -34 -64 -46 -68 -9 -4 -11 -1 -7 5 4 7 -11 0
-32 -15 -45 -30 -58 -33 -46 -8 5 9 7 23 5 30 -3 6 1 12 9 12 8 0 7 4 -4 11
-10 5 -18 17 -18 24 0 8 -7 15 -15 15 -8 0 -15 -5 -15 -10 0 -6 -10 -8 -23 -5
-15 4 -28 1 -36 -9 -16 -19 -31 -12 -31 15 0 19 -2 19 -22 5 -23 -17 -48 -6
-48 20 0 21 -20 27 -33 9 -11 -15 -17 -14 -60 11 -27 14 -50 24 -53 21 -7 -7
27 -67 38 -67 4 0 8 -7 8 -15 0 -8 7 -15 16 -15 11 0 14 -6 9 -21 -5 -15 -4
-19 4 -15 6 4 11 0 11 -8 0 -9 5 -16 10 -16 6 0 10 -7 10 -15 0 -9 9 -15 22
-15 17 0 19 -3 10 -12 -18 -18 -15 -49 3 -42 19 8 19 5 -1 -41 -8 -20 -13 -39
-10 -42 3 -3 26 7 51 21 34 21 45 23 45 12 0 -8 -4 -17 -10 -21 -10 -6 -9 -65
1 -65 3 0 14 9 24 20 31 34 37 22 12 -22 -42 -77 -43 -125 -1 -83 8 8 21 12
30 8 10 -4 18 4 27 26 6 17 15 31 19 31 11 0 10 -13 -3 -47 -12 -33 -20 -153
-9 -153 12 0 50 37 50 49 0 6 5 11 12 11 6 0 23 10 36 23 24 22 24 22 18 1 -4
-12 -8 -36 -11 -54 -2 -17 -9 -37 -14 -44 -6 -7 -9 -28 -7 -47 2 -19 -1 -40
-7 -48 -6 -7 10 1 36 19 26 17 47 35 47 40 0 5 6 7 14 4 8 -3 17 3 20 14 4 11
16 28 28 38 21 19 21 19 14 -1 -5 -11 -21 -71 -36 -132 -16 -62 -32 -118 -36
-125 -4 -7 2 -5 13 5 23 20 39 22 46 5 3 -8 6 -5 6 5 1 10 5 16 11 12 9 -6 22
6 61 55 l20 25 -5 -50 c-3 -28 -8 -59 -12 -69 -5 -14 -4 -17 4 -12 7 4 12 2
12 -4 0 -7 -7 -10 -15 -7 -8 4 -17 1 -21 -5 -4 -7 -9 -6 -15 3 -7 11 -9 11 -9
-2 0 -14 -14 -25 -40 -32 -3 0 -14 -9 -24 -19 -10 -9 -22 -15 -26 -13 -5 3
-11 -2 -14 -11 -3 -8 -10 -13 -15 -10 -5 3 -11 -1 -15 -9 -3 -8 -11 -15 -17
-15 -8 0 -8 4 -1 13 6 6 13 30 17 52 3 22 9 52 11 66 5 25 3 26 -40 25 -37 0
-47 -4 -55 -23 -6 -13 -16 -23 -22 -23 -6 0 -9 -7 -5 -15 5 -13 -5 -20 -26
-16 -5 0 -8 -4 -8 -9 0 -15 -42 -70 -52 -70 -5 0 -7 4 -4 9 4 5 0 11 -6 14
-10 3 -10 7 0 19 7 9 10 22 8 29 -3 8 -7 39 -10 69 -2 31 -10 68 -17 82 -12
27 -12 26 -36 -45 -39 -120 -63 -151 -63 -83 0 18 -6 45 -13 59 l-14 26 -16
-35 c-10 -19 -22 -32 -27 -29 -6 4 -10 -5 -10 -20 0 -20 -4 -26 -17 -23 -10 2
-16 11 -14 19 11 41 11 97 0 124 -9 23 -13 26 -16 13 -3 -10 -9 -18 -15 -18
-5 0 -8 -7 -4 -15 3 -8 1 -15 -4 -15 -6 0 -9 -3 -9 -7 4 -22 -2 -44 -10 -39
-12 8 -33 -19 -23 -30 4 -4 -1 -2 -12 6 -16 13 -21 12 -41 -12 -15 -17 -43
-32 -77 -41 l-53 -14 40 -19 c41 -19 67 -39 64 -49 0 -3 4 -20 10 -37 9 -26
13 -29 26 -18 8 7 15 19 15 26 0 20 17 17 39 -5 15 -15 18 -29 14 -58 -3 -21
-1 -54 4 -73 l9 -35 19 32 c10 18 22 30 26 28 4 -3 10 6 13 20 12 47 34 18 41
-56 4 -38 11 -67 15 -64 5 3 10 -1 13 -7 3 -9 8 -6 13 7 10 25 35 44 49 38 7
-2 12 4 12 14 -1 10 1 36 2 58 l3 40 11 -35 c9 -30 11 -32 15 -12 8 47 17 19
17 -53 0 -43 4 -75 10 -75 6 0 20 -24 32 -53 l22 -52 0 43 c1 24 5 41 10 38
11 -7 21 17 21 50 0 13 5 24 10 24 6 0 10 14 10 32 0 60 21 14 31 -68 9 -74
37 -186 38 -155 1 10 4 11 15 2 11 -9 15 -8 21 6 5 10 9 23 10 28 0 6 5 27 9
48 l8 37 32 -19 c26 -16 33 -17 43 -6 8 8 9 16 3 20 -16 10 1 35 23 35 19 0
19 1 4 13 -11 8 -15 20 -10 35 5 21 10 23 42 17 52 -9 101 -25 101 -34 0 -4
-4 -11 -8 -16 -11 -13 -30 -103 -38 -180 -3 -33 -17 -123 -30 -200 -28 -162
-48 -401 -39 -457 6 -32 2 -45 -22 -82 l-29 -44 -21 42 c-12 22 -40 80 -62
127 -44 95 -36 90 -156 104 -124 15 -115 9 -115 70 0 43 4 55 18 60 26 7 43
49 36 84 -4 21 0 37 15 58 23 31 32 80 16 85 -5 2 -16 -10 -23 -26 -8 -15 -23
-37 -34 -48 -17 -17 -25 -19 -56 -10 -84 24 -149 42 -173 47 -21 4 -28 12 -31
36 -3 20 0 33 9 36 24 9 14 21 -35 39 -65 24 -72 31 -72 75 0 22 -4 39 -10 39
-5 0 -10 -8 -10 -17 0 -10 -7 -31 -15 -47 -9 -16 -13 -31 -10 -34 3 -3 -7 -18
-21 -33 -36 -37 -28 -91 16 -114 17 -9 30 -23 30 -31 0 -12 6 -15 23 -11 12 4
28 2 36 -2 16 -11 11 -30 -42 -139 -38 -79 -40 -86 -26 -111 8 -14 36 -39 62
-56 36 -23 47 -36 47 -57 0 -20 8 -31 32 -42 39 -20 52 -20 68 -1 20 24 28 18
41 -27 6 -24 18 -58 26 -76 16 -33 16 -34 -13 -58 -51 -42 -132 -94 -146 -94
-8 0 -22 -6 -32 -13 -18 -13 -17 -16 4 -81 29 -83 46 -106 85 -109 33 -2 31
-7 19 83 -2 19 -1 40 3 45 15 19 109 94 174 137 35 24 64 50 63 58 -1 8 -10
48 -22 88 l-20 72 46 0 c78 0 87 -7 139 -92 26 -44 60 -98 74 -121 31 -52 53
-57 90 -21 16 15 29 25 29 23 0 -15 78 -435 86 -460 3 -12 -5 -20 -27 -28 -46
-16 -47 -15 -60 29 -14 46 -20 48 -49 18 l-20 -22 -1 30 c-1 16 -1 54 -1 84
l0 55 -34 -40 c-19 -21 -37 -49 -40 -62 -4 -13 -10 -21 -14 -18 -4 3 -10 -9
-14 -25 -6 -33 -26 -41 -26 -12 0 28 -30 83 -41 76 -6 -3 -8 -12 -5 -20 3 -7
1 -27 -5 -43 -6 -16 -13 -51 -17 -77 l-7 -47 -39 54 c-21 30 -36 47 -33 38 4
-11 0 -16 -11 -15 -13 1 -18 -10 -22 -47 -3 -26 -9 -46 -13 -45 -5 2 -17 -15
-27 -37 -10 -22 -19 -33 -19 -24 -1 9 -13 29 -27 45 l-26 29 7 -38 c6 -35 4
-38 -13 -33 -16 5 -23 -1 -36 -34 -9 -22 -19 -40 -22 -40 -3 0 -4 6 -1 13 3 8
1 20 -3 28 -7 11 -10 10 -15 -3 -4 -10 -13 -14 -21 -11 -8 3 -14 2 -13 -3 1
-5 1 -18 -1 -29 l-1 -20 -9 20 c-7 19 -8 18 -18 -6 -6 -16 -32 -39 -63 -57
l-53 -30 68 -4 c37 -1 71 1 77 7 6 5 9 5 9 -3 0 -15 43 -9 48 6 5 17 22 15 22
-3 0 -21 18 -19 32 5 15 24 30 26 26 4 -5 -27 21 -28 31 -2 9 22 12 22 15 -4
2 -25 23 -16 44 19 l22 38 0 -33 c0 -22 6 -34 18 -38 9 -3 29 -11 43 -18 l26
-13 -5 43 -5 44 33 -11 c26 -9 34 -9 41 2 8 13 13 5 10 -14 -1 -4 6 -10 14
-13 21 -8 51 -65 33 -62 -8 2 -12 -5 -11 -17 6 -63 10 -185 7 -185 -2 0 -11
18 -20 40 -9 22 -20 40 -25 40 -5 0 -14 11 -19 25 -5 14 -16 25 -23 25 -7 0
-24 11 -37 25 -13 14 -25 23 -27 21 -2 -1 7 -32 20 -67 13 -35 23 -77 22 -94
-1 -16 2 -36 8 -42 13 -18 -3 -16 -22 2 -49 44 -62 55 -85 70 -29 19 -34 10
-11 -21 8 -12 12 -24 10 -26 -3 -3 2 -24 10 -47 12 -35 12 -45 2 -55 -10 -11
-19 -8 -47 16 -31 25 -35 26 -41 11 -4 -10 -1 -24 5 -32 9 -12 8 -13 -3 -6
-11 6 -13 4 -8 -9 4 -10 1 -24 -7 -31 -12 -12 -16 -12 -26 0 -20 24 -30 17
-28 -18 3 -26 0 -31 -15 -29 -9 2 -17 -2 -17 -8 0 -6 -21 -33 -46 -60 -26 -28
-45 -50 -42 -50 2 0 27 7 54 15 27 8 65 16 84 19 19 2 43 7 52 11 10 4 18 3
18 -2 0 -6 11 -15 25 -21 17 -8 25 -8 25 -1 0 6 6 7 12 2 7 -4 5 5 -5 21 -28
42 -15 41 35 -4 26 -22 48 -40 51 -40 5 0 -3 35 -18 75 -5 11 13 -1 38 -27 26
-27 49 -48 51 -48 2 0 -2 24 -10 53 -17 66 -17 72 1 57 8 -7 15 -18 15 -25 0
-15 27 -28 41 -19 5 3 9 -1 9 -8 0 -10 2 -10 9 1 7 10 12 7 22 -15 8 -16 19
-29 24 -29 6 0 16 -4 23 -8 20 -13 2 84 -28 144 -10 22 -9 21 14 -4 14 -15 26
-35 26 -43 0 -8 4 -13 9 -9 6 3 25 -10 44 -29 19 -19 38 -32 41 -29 3 4 17 -4
31 -17 29 -28 30 -26 9 31 -8 24 -17 52 -19 63 -3 10 -11 26 -20 36 -20 22
-19 36 2 19 15 -12 16 -12 10 4 -10 26 3 21 73 -29 35 -26 60 -39 57 -30 -4 9
-2 16 3 16 6 0 5 14 -3 33 -15 35 -15 34 -24 77 -3 17 -10 33 -14 36 -19 11
-7 23 45 48 30 14 57 26 59 26 2 0 26 -48 52 -107 27 -60 60 -126 74 -148 14
-22 31 -52 38 -68 l12 -27 -29 15 c-47 25 -53 17 -15 -20 19 -20 35 -40 35
-45 0 -4 3 -17 7 -27 5 -14 -1 -11 -26 10 -21 18 -44 27 -67 27 -32 0 -33 -1
-24 -25 5 -14 16 -35 24 -48 9 -12 17 -32 19 -42 2 -11 7 -28 11 -37 4 -9 6
-27 3 -40 -4 -22 -5 -21 -18 9 -11 27 -18 32 -44 31 -18 -1 -36 1 -41 4 -5 3
-14 0 -21 -7 -9 -9 -7 -20 9 -46 12 -19 24 -47 29 -62 7 -25 6 -27 -7 -16 -12
10 -13 9 -8 -4 5 -14 2 -14 -20 -4 -14 7 -26 15 -26 20 0 4 -5 7 -12 7 -6 0
-20 7 -30 17 -24 22 -23 2 3 -30 11 -15 23 -43 26 -63 6 -34 5 -36 -15 -25
-28 15 -32 14 -25 -5 5 -14 3 -14 -16 -3 -11 8 -21 17 -21 21 0 5 -4 8 -8 8
-5 0 -7 -22 -6 -49 1 -39 -1 -48 -13 -44 -10 4 -13 -1 -9 -22 4 -21 2 -25 -10
-21 -12 4 -14 1 -9 -14 5 -14 2 -20 -10 -20 -10 0 -15 -7 -13 -17 2 -12 -3
-17 -15 -15 -9 2 -17 -3 -17 -10 -1 -7 -14 -29 -31 -48 -37 -43 -21 -50 45
-19 37 17 49 19 61 9 12 -10 15 -9 15 4 0 22 27 31 45 16 13 -10 15 -8 15 14
0 14 5 26 11 26 5 0 7 5 4 10 -9 14 10 12 52 -5 45 -19 44 -20 27 13 -19 37
-18 52 6 52 21 0 46 -17 86 -60 21 -21 24 -22 24 -7 0 10 -4 26 -9 35 -4 9
-11 29 -15 44 -5 23 -4 26 11 21 10 -4 35 -20 56 -37 27 -22 40 -27 48 -19 9
9 6 21 -11 48 -12 20 -20 38 -17 41 3 3 23 -6 44 -20 20 -14 40 -26 44 -26 15
0 4 39 -22 78 -35 53 -24 54 32 2 40 -36 42 -41 26 -51 -9 -5 -15 -14 -12 -19
3 -4 -22 -34 -55 -66 -33 -33 -60 -64 -60 -70 0 -6 9 -19 20 -29 27 -25 20
-28 -22 -11 -49 21 -53 10 -10 -29 36 -33 36 -34 17 -49 -20 -14 -20 -14 0
-37 20 -22 20 -22 0 -15 -29 11 -55 16 -55 9 0 -2 8 -17 18 -31 37 -54 37 -57
-1 -34 l-37 21 0 -22 c0 -12 9 -37 20 -54 11 -18 15 -33 9 -33 -5 0 -7 -5 -3
-11 4 -8 0 -9 -15 -4 -24 7 -26 2 -11 -26 9 -16 7 -19 -15 -19 -22 0 -25 -4
-22 -25 1 -13 6 -27 10 -31 4 -4 -1 -13 -11 -20 -14 -11 -14 -13 -2 -14 12 0
12 -2 -2 -10 -10 -6 -14 -18 -11 -29 3 -11 -4 -47 -16 -80 -12 -34 -21 -64
-21 -68 0 -4 20 13 45 37 37 37 46 41 60 30 13 -11 15 -9 15 13 0 28 24 54 35
37 11 -17 22 -11 21 12 -1 21 3 23 36 20 41 -4 52 14 23 38 -8 7 -15 16 -15
21 0 11 49 1 68 -14 14 -11 16 2 3 23 -14 21 -2 33 17 17 10 -8 25 -17 34 -20
21 -7 14 18 -14 49 -18 20 -18 21 12 16 24 -3 30 -1 30 15 0 11 -7 28 -15 39
-8 10 -15 22 -15 27 0 9 58 -19 80 -39 9 -7 21 -10 28 -5 9 5 4 17 -18 41 -38
42 -32 50 12 16 28 -21 41 -24 72 -19 l37 6 -37 38 c-32 33 -35 39 -19 39 17
0 17 2 5 10 -13 8 -12 10 4 10 12 0 16 5 13 14 -11 29 19 38 54 17 34 -21 48
-51 23 -51 -9 0 -12 -4 -9 -10 3 -5 -1 -10 -9 -10 -13 0 -12 -4 4 -20 21 -21
19 -46 -2 -34 -7 4 -8 2 -4 -5 4 -6 0 -18 -9 -27 -13 -14 -14 -18 -2 -28 7 -6
18 -23 25 -38 10 -24 9 -28 -8 -33 -11 -4 -29 -3 -40 0 -11 3 -20 4 -20 0 0
-9 33 -59 45 -67 16 -12 0 -9 -51 8 -25 8 -48 13 -51 11 -2 -3 9 -20 25 -38
37 -44 68 -97 60 -105 -4 -3 -23 -1 -43 6 -45 15 -51 10 -27 -21 38 -50 25
-75 -35 -70 -21 1 -21 0 -7 -29 9 -16 13 -34 9 -40 -3 -5 -1 -10 4 -10 6 0 11
-5 11 -11 0 -5 -4 -7 -10 -4 -5 3 -10 -1 -10 -10 0 -9 -6 -23 -12 -30 -33 -37
-39 -46 -33 -55 5 -8 -5 -61 -22 -108 -3 -9 12 0 33 20 22 21 45 38 52 38 7 0
11 5 10 12 -2 7 11 14 27 18 20 3 26 8 18 13 -7 5 -13 17 -13 29 0 15 5 19 20
15 14 -3 20 0 20 10 0 12 9 15 43 10 23 -2 51 -8 62 -12 13 -5 7 6 -20 34 -33
34 -36 41 -20 42 11 0 14 3 7 6 -6 2 -10 8 -7 13 6 9 66 -17 77 -34 5 -7 8 -5
8 4 0 8 -9 26 -20 40 -31 39 -21 72 10 35 7 -8 20 -15 29 -15 9 0 22 -5 29
-12 6 -6 14 -9 18 -6 7 7 -32 94 -46 103 -6 4 -8 11 -5 16 4 5 13 3 21 -6 9
-8 24 -15 34 -15 10 0 33 -12 51 -27 23 -20 31 -23 26 -11 -3 10 -2 20 2 23
12 7 2 45 -11 45 -6 0 -8 7 -4 15 3 8 1 15 -5 15 -6 0 -7 5 -4 10 3 6 3 16 -2
23 -4 6 -9 19 -10 29 -2 15 0 15 27 1 17 -8 30 -18 30 -23 0 -9 23 -18 66 -26
l27 -5 -27 35 -27 36 45 -4 c25 -3 51 -8 56 -11 7 -4 9 3 6 21 -3 15 -11 31
-17 35 -6 4 -9 11 -5 17 3 5 -1 12 -9 16 -23 9 -18 29 6 23 15 -4 19 -2 15 9
-3 8 -3 14 1 14 14 0 223 -127 271 -165 6 -5 -19 -201 -30 -235 -6 -19 -27
-58 -45 -86 -26 -39 -42 -53 -66 -58 -17 -3 -35 -2 -41 4 -18 18 -40 11 -79
-25 -47 -43 -87 -127 -94 -199 -5 -46 -2 -57 16 -75 11 -11 21 -28 21 -37 0
-8 14 -35 31 -60 34 -49 31 -64 -11 -64 -38 0 -60 -32 -60 -88 0 -37 6 -50 34
-78 61 -61 137 -36 150 51 5 31 12 45 22 45 12 0 14 7 9 29 -5 25 -2 32 22 47
15 10 38 27 50 37 13 12 51 25 91 32 61 10 71 10 79 -4 9 -14 14 -13 37 8 47
44 25 93 -30 67 -16 -8 -52 -16 -80 -18 l-52 -5 19 31 c10 17 19 49 19 71 0
36 3 41 25 43 37 3 97 36 140 76 36 34 37 35 30 93 -4 32 -15 82 -25 112 -18
53 -18 56 2 108 12 29 24 53 28 53 4 0 24 -13 45 -30 25 -19 50 -31 74 -31 20
-1 43 -2 51 -3 8 -1 27 -9 41 -19 14 -9 77 -35 140 -56 63 -21 170 -60 239
-86 69 -26 131 -49 139 -51 7 -2 11 -11 7 -19 -8 -22 -53 -174 -66 -223 l-11
-44 -59 56 c-32 31 -70 60 -84 66 -22 8 -25 14 -20 38 7 36 -11 51 -26 22 -9
-18 -40 -107 -40 -118 0 -2 12 -1 28 2 23 6 34 0 70 -37 l44 -44 -26 -26 c-14
-14 -26 -36 -26 -49 0 -13 -8 -49 -17 -81 -17 -54 -20 -57 -43 -51 -14 3 -47
7 -75 8 l-50 1 -3 -42 c-5 -62 15 -156 36 -171 10 -8 30 -11 48 -7 26 4 32 2
37 -15 3 -11 12 -20 20 -20 23 0 108 -51 101 -61 -3 -5 -11 -9 -18 -9 -26 0
-56 -45 -56 -84 0 -98 137 -133 202 -52 23 28 22 61 -4 115 -12 25 -17 46 -12
48 5 2 50 33 99 71 89 66 121 110 99 132 -7 7 -20 -4 -41 -33 -18 -26 -47 -52
-74 -64 -24 -12 -57 -35 -73 -52 -17 -17 -35 -31 -43 -31 -32 0 -40 85 -10
104 15 9 22 7 38 -13 18 -22 21 -23 36 -9 14 15 14 16 -3 15 -15 -2 -19 5 -19
28 0 25 -4 30 -22 28 -19 -2 -23 2 -23 26 0 16 -6 32 -12 34 -8 4 9 26 44 59
31 29 70 73 88 97 28 41 30 49 24 101 -7 60 3 98 53 218 20 49 30 61 42 56 44
-19 198 -56 296 -70 88 -13 152 -15 320 -10 116 3 229 10 253 15 23 5 44 6 46
2 2 -3 1 -24 -3 -46 l-6 -40 -90 0 c-50 0 -187 2 -305 5 l-215 5 -17 -70 c-39
-165 -120 -556 -116 -560 2 -3 20 7 39 21 56 42 96 54 178 54 59 0 87 -6 126
-24 64 -29 194 -128 265 -200 30 -31 57 -56 61 -56 3 0 12 19 18 42 28 94 134
346 175 417 73 126 206 369 206 375 0 3 -47 6 -105 6 l-105 0 0 49 0 48 110
22 c60 11 125 21 144 21 32 0 169 23 206 35 15 5 18 -5 24 -66 3 -40 9 -82 12
-94 6 -25 -24 -44 -37 -24 -4 8 -10 6 -17 -7 -9 -16 -12 -16 -28 -4 -16 13
-17 13 -11 -2 3 -10 3 -17 -1 -17 -15 2 -52 -14 -52 -22 0 -27 88 -88 129 -90
9 0 -8 -8 -36 -17 -70 -23 -84 -38 -51 -51 15 -5 29 -15 33 -20 3 -6 24 -11
46 -11 21 0 39 -4 39 -10 0 -5 -9 -10 -19 -10 -11 0 -21 -3 -23 -7 -1 -5 -25
-19 -51 -32 -48 -24 -48 -25 -25 -37 13 -7 41 -16 63 -20 22 -3 46 -11 52 -16
7 -6 19 -8 28 -5 8 4 17 2 19 -2 6 -9 -36 -31 -58 -31 -12 0 -26 -20 -26 -36
0 -2 17 -4 39 -4 22 0 44 -6 51 -15 15 -17 15 -16 -25 -34 -27 -13 -28 -15
-10 -21 11 -3 35 -13 54 -22 31 -14 32 -16 15 -27 -18 -10 -18 -11 4 -17 14
-4 21 -12 18 -20 -3 -8 -9 -20 -12 -28 -3 -9 3 -19 15 -25 11 -7 30 -34 42
-61 12 -28 25 -50 30 -50 4 0 7 28 5 63 -2 51 2 67 21 94 l23 32 -22 3 c-25 4
-37 28 -14 28 22 0 20 18 -1 22 -14 3 -9 12 25 43 23 21 42 42 42 46 0 4 -18
5 -40 2 -48 -7 -51 1 -10 22 30 16 41 44 18 46 -20 2 -21 2 -45 -6 -14 -4 -23
-2 -23 4 0 6 8 11 18 11 35 0 75 66 44 72 -12 3 -2 14 33 36 l50 32 -40 1
c-22 1 -52 1 -67 0 -16 -1 -28 3 -28 8 0 6 5 11 10 11 6 0 34 21 61 47 43 40
48 48 32 54 -10 3 -28 2 -41 -2 -35 -13 -72 -11 -72 5 0 7 9 24 19 37 10 14
27 42 37 64 10 22 19 42 21 46 2 3 -20 4 -49 4 -38 -1 -52 -6 -50 -15 2 -8 -4
-11 -17 -7 -11 3 -21 1 -23 -4 -2 -5 -9 -4 -17 0 -9 6 -19 43 -26 95 l-11 86
114 36 c63 19 169 57 235 84 66 27 122 48 123 47 1 -1 17 -49 34 -107 18 -58
50 -145 71 -195 48 -111 50 -139 11 -153 -48 -17 -101 -70 -108 -109 -8 -42
10 -132 38 -186 25 -49 76 -76 113 -59 15 7 32 9 38 5 29 -19 82 -32 91 -23
22 22 28 6 26 -67 -3 -103 -4 -100 30 -118 41 -21 102 -19 127 4 33 31 38 85
12 120 -12 16 -18 34 -15 40 4 6 1 11 -7 11 -59 0 -17 86 57 116 34 14 47 26
51 46 12 50 -9 61 -46 25 -25 -24 -115 -77 -131 -77 -5 0 -9 19 -9 43 -1 106
0 103 -36 116 -57 21 -38 74 59 169 58 56 98 105 98 120 0 17 -27 33 -44 26
-9 -3 -16 -16 -16 -29 0 -18 -4 -22 -19 -18 -13 3 -20 -2 -25 -20 -3 -13 -27
-50 -53 -81 l-46 -57 -44 108 c-24 59 -50 132 -58 162 -14 53 -69 155 -107
197 l-19 22 56 26 c31 14 129 67 216 117 88 50 161 90 163 88 1 -2 95 -103
207 -225 112 -121 271 -293 353 -381 137 -149 165 -172 205 -173 8 0 74 59
147 131 l133 132 42 -37 c23 -20 50 -36 58 -36 18 0 288 275 297 303 8 24 -8
40 -133 144 -57 46 -103 87 -103 90 0 3 50 64 110 136 139 165 139 165 33 244
-141 104 -537 402 -568 426 l-29 24 55 64 c31 35 75 90 98 122 23 31 44 57 46
57 13 0 -2 -57 -20 -72 -11 -10 -15 -17 -7 -18 6 0 12 5 12 10 0 6 5 10 11 10
8 0 7 -5 -2 -16 -7 -9 -14 -21 -15 -28 -2 -6 -5 -21 -8 -34 -3 -15 0 -22 11
-22 12 0 14 -7 10 -30 -4 -16 -5 -30 -2 -30 2 0 32 25 67 55 34 30 66 55 71
55 10 0 -9 -37 -24 -46 -8 -4 -7 -9 2 -14 10 -7 10 -12 -1 -25 -8 -10 -10 -19
-4 -23 11 -8 12 -48 1 -58 -13 -13 -7 -27 6 -15 8 6 16 9 19 6 5 -6 53 45 61
66 4 9 6 10 6 2 1 -20 21 -15 21 5 0 9 9 28 20 42 l20 25 -5 -30 c-9 -44 -10
-48 -22 -70 -6 -11 -11 -37 -11 -57 l0 -37 36 34 c19 19 39 35 44 35 5 0 21
12 35 27 14 16 21 21 15 13 -8 -12 -24 -85 -23 -105 0 -2 -4 -18 -9 -35 -16
-56 23 -31 115 75 33 39 45 42 26 7 -5 -10 -14 -42 -19 -72 l-10 -55 19 26
c24 33 97 84 107 75 4 -4 -2 -14 -12 -22 -17 -12 -18 -14 -3 -14 20 0 21 -4 7
-31 -18 -32 -1 -43 27 -17 13 13 26 22 29 21 2 -2 5 -3 7 -2 1 0 14 3 29 5 22
4 26 1 22 -11 -7 -18 0 -19 27 -2 17 10 22 9 30 -6 7 -12 17 -16 30 -12 14 5
19 2 19 -11 0 -13 3 -14 14 -5 11 9 20 10 36 1 12 -6 30 -10 41 -8 18 3 17 6
-14 38 -20 19 -33 38 -30 42 2 5 -3 8 -11 8 -9 0 -16 6 -16 13 -1 23 -39 59
-56 53 -14 -5 -16 -1 -10 26 4 18 11 35 16 36 6 2 10 8 10 13 0 14 -37 11 -53
-6 -20 -19 -28 -8 -16 22 15 39 11 46 -16 29 -31 -21 -39 -20 -30 2 4 9 8 25
10 36 3 10 8 23 13 30 5 6 12 21 15 34 l5 23 -46 -27 c-26 -15 -55 -34 -65
-42 -24 -21 -33 -8 -13 20 9 12 16 32 16 44 0 11 11 42 24 67 l24 45 -28 -8
c-35 -10 -140 -78 -140 -91 0 -5 -7 -9 -17 -9 -14 0 -14 2 2 20 11 13 19 35
18 56 0 19 4 37 8 40 5 3 9 15 9 28 0 12 3 26 7 30 4 3 7 15 8 26 2 18 0 19
-15 5 -9 -8 -20 -15 -24 -15 -18 0 -93 -40 -110 -59 -11 -12 -23 -21 -28 -21
-8 0 -6 7 25 66 9 17 14 34 11 37 -3 3 0 16 7 29 7 12 13 35 15 51 1 15 7 34
14 42 11 13 8 14 -16 11 -58 -7 -82 -18 -87 -38 -4 -14 -11 -19 -21 -15 -9 4
-16 2 -16 -3 0 -6 -4 -10 -10 -10 -5 0 -10 12 -10 27 0 25 -2 24 -51 -26 -28
-29 -53 -50 -56 -47 -3 3 -1 11 5 18 6 7 16 36 23 63 6 28 16 56 22 63 12 16
-5 16 -21 0 -27 -27 -22 5 11 64 19 35 47 93 62 131 15 37 31 67 35 67 4 0 25
12 46 26 l38 26 57 -60 c75 -81 98 -85 236 -45 57 17 103 29 103 27 0 -3 -14
-17 -31 -32 l-31 -28 17 -54 c28 -94 33 -102 58 -98 28 4 34 45 13 87 -24 46
-20 56 32 79 47 22 180 72 189 72 3 0 2 -11 -1 -25 -5 -18 -2 -25 9 -25 8 0
15 -5 15 -11 0 -7 10 -9 25 -5 14 4 25 2 25 -4 0 -11 66 16 94 40 14 11 17 24
13 57 -4 40 -47 117 -54 96 -3 -7 -16 -8 -39 -3 -29 7 -39 5 -56 -12 l-20 -20
-15 29 c-37 71 -74 131 -90 145 -10 8 -35 18 -57 21 -21 3 -76 25 -122 48 -46
22 -91 39 -99 35 -24 -9 -17 -35 13 -48 15 -7 38 -19 52 -29 14 -9 54 -28 90
-42 41 -16 74 -37 89 -56 l24 -31 -64 6 c-35 4 -72 11 -81 15 -23 12 -85 11
-93 -1 -12 -20 -41 -9 -85 30 -54 49 -111 83 -165 100 -22 7 -43 15 -48 19 -4
4 11 103 33 220 22 117 40 226 40 243 l0 31 31 -43 c18 -25 47 -49 70 -59 l39
-16 0 -72 c0 -89 12 -100 113 -105 57 -2 70 0 78 15 8 14 25 17 100 17 92 0
122 8 132 34 3 8 13 90 23 183 l17 168 41 45 c54 58 158 196 179 235 37 74 59
165 52 220 -3 30 -10 121 -14 202 -8 145 -9 150 -46 223 -85 169 -168 259
-257 280 -33 8 -129 13 -266 12 -288 -1 -312 -11 -312 -139 0 -48 -2 -54 -15
-43 -8 7 -17 28 -21 49 -3 20 -16 77 -29 126 -31 126 -38 178 -24 173 7 -2 19
-17 28 -34 9 -16 26 -40 38 -53 19 -20 21 -21 18 -5 -2 11 -6 35 -9 55 l-4 36
39 -14 c22 -7 52 -21 66 -30 l26 -17 -7 29 c-4 17 -8 37 -9 45 -2 9 -6 21 -11
28 -4 6 -5 16 -2 20 3 5 -2 21 -10 37 -8 15 -13 29 -11 31 2 2 26 -12 54 -30
l51 -34 4 35 c2 19 0 37 -5 40 -5 3 -3 9 4 14 9 5 10 9 3 9 -7 0 -14 16 -16
35 -5 43 0 43 36 6 15 -16 36 -31 46 -34 15 -4 17 -1 10 24 -5 16 -6 29 -3 29
3 0 -2 11 -11 25 -15 23 -15 24 1 19 14 -4 13 -1 -4 14 -13 11 -23 24 -23 28
0 4 5 3 12 -4 17 -17 28 -15 29 6 0 15 2 14 10 -3 6 -11 21 -28 34 -37 31 -23
35 -9 20 67 -7 33 -10 63 -6 67 4 4 21 2 39 -4 41 -16 51 -5 25 30 -26 36 -19
52 24 52 27 0 34 3 29 15 -10 28 5 47 32 40 22 -5 24 -3 19 17 -4 18 5 33 38
68 24 24 43 46 41 48 -2 1 -27 -7 -56 -18 -28 -11 -63 -21 -76 -22 -13 -1 -24
-6 -24 -10 0 -4 -7 -5 -15 -2 -8 4 -15 1 -15 -6 0 -7 -7 -10 -16 -6 -13 5 -15
2 -11 -14 6 -24 8 -24 -36 -5 -51 21 -57 19 -41 -14 18 -35 10 -64 -14 -51
-10 5 -25 11 -35 14 -26 8 -48 70 -45 123 4 56 16 63 43 23 19 -28 55 -42 55
-20 0 5 7 7 15 4 11 -5 13 2 9 33 -3 21 -10 50 -14 66 -5 15 -8 27 -7 27 9 0
83 -42 98 -56 25 -23 25 -5 -1 63 -14 39 -16 53 -7 57 9 5 9 7 -1 12 -15 7
-46 64 -34 64 4 0 17 -7 29 -15 33 -23 75 -4 71 32 -2 22 1 28 17 28 16 0 19
6 17 28 -2 20 1 25 13 21 12 -5 15 1 15 27 0 26 3 30 12 21 20 -20 29 -14 22
14 -5 19 -4 25 5 20 7 -4 11 0 11 11 0 11 20 39 45 63 24 24 43 45 41 47 -2 2
-27 -5 -55 -17 -29 -11 -67 -21 -86 -23 -28 -2 -34 -5 -29 -19 6 -19 -6 -24
-21 -9 -6 5 -20 12 -31 15 -17 5 -22 2 -26 -18 -3 -13 -1 -31 4 -40 9 -17 -6
-24 -16 -7 -3 5 -17 11 -32 14 -30 5 -41 -12 -24 -42 13 -25 -4 -29 -29 -7
-17 14 -81 30 -81 19 0 -3 11 -26 25 -50 25 -41 21 -60 -5 -28 -7 9 -15 13
-17 11 -3 -2 -25 6 -49 19 l-44 23 4 -29 c1 -16 6 -32 9 -36 12 -12 7 -33 -6
-27 -22 8 -48 59 -36 71 8 8 6 20 -5 41 -29 57 -23 65 34 43 28 -11 50 -18 50
-16 0 1 -9 22 -19 46 -19 42 -19 65 0 54 5 -3 6 1 2 11 -6 16 4 16 55 -3 16
-7 15 2 -3 37 -16 31 -9 59 37 144 l21 40 -39 -23 c-21 -13 -47 -32 -56 -43
-10 -11 -23 -16 -29 -12 -8 4 -9 3 -5 -4 11 -17 -5 -14 -26 5 -17 15 -18 15
-18 -15 0 -30 -1 -31 -37 -25 -21 3 -44 10 -51 16 -19 15 -27 -1 -10 -20 8
-10 18 -31 22 -48 4 -19 3 -25 -2 -16 -8 11 -10 11 -14 0 -4 -11 -15 -7 -46
14 -54 35 -66 35 -47 -3 9 -16 12 -30 9 -30 -4 0 3 -11 16 -25 13 -14 19 -25
13 -25 -5 0 -18 9 -28 20 -10 11 -23 19 -29 18 -6 -2 -25 7 -43 20 -17 12 -33
22 -36 22 -9 0 8 -52 32 -98 24 -47 13 -55 -29 -22 -14 11 -28 20 -32 20 -14
0 -9 -35 8 -58 25 -36 12 -35 -32 1 -41 34 -84 60 -84 52 0 -2 9 -19 20 -37
26 -43 27 -72 3 -58 -10 5 -34 17 -53 26 -30 15 -33 15 -22 2 7 -9 9 -18 3
-20 -5 -1 -1 -20 10 -42 19 -40 17 -65 -4 -47 -19 15 -87 25 -87 12 0 -6 -11
-11 -25 -11 -35 0 -32 -10 18 -64 24 -25 40 -46 36 -46 -19 0 -66 23 -88 43
-22 21 -91 120 -91 132 0 3 17 5 38 5 43 0 123 35 169 74 17 14 43 50 57 78
82 164 -34 378 -204 378 l-40 0 6 40 c5 31 3 40 -8 40 -10 0 -20 32 -36 113
-12 62 -22 118 -22 123 0 5 12 10 26 10 17 2 24 -2 20 -11 -3 -8 2 -19 10 -26
11 -9 18 -8 34 6 33 30 25 57 -27 97 -96 73 -93 64 -86 226 6 138 7 142 28
142 25 0 55 29 55 53 0 9 4 17 8 17 5 0 13 15 19 34 13 41 -1 67 -47 91 -72
37 -130 8 -130 -66 0 -55 -25 -73 -81 -58 -60 16 -145 -8 -198 -56 -93 -84
-106 -235 -20 -235 33 0 31 -16 -9 -65 -21 -25 -23 -35 -18 -80 4 -27 7 -57 7
-65 1 -26 -32 -134 -45 -147 -6 -7 -38 -18 -71 -24 -78 -14 -125 -39 -168 -90
-32 -37 -57 -45 -57 -18 0 6 4 8 9 5 5 -3 15 1 22 10 11 13 11 17 -1 24 -8 5
-24 15 -34 23 -18 13 -17 15 15 26 23 9 29 15 19 18 -8 3 -23 12 -32 21 -17
14 -16 16 5 34 20 18 21 20 4 29 -9 6 -15 14 -12 20 4 5 0 9 -7 9 -10 0 -10 2
1 9 7 5 10 14 6 20 -4 7 -1 18 5 26 10 12 9 15 -3 15 -8 0 -15 6 -14 13 1 44
-4 87 -12 87 -4 0 -16 -20 -25 -45 -10 -25 -24 -45 -31 -45 -8 0 -11 -7 -8
-20 3 -11 0 -20 -6 -20 -6 0 -10 -10 -8 -22 1 -17 -3 -22 -15 -20 -10 2 -18
-1 -18 -6 0 -5 -13 -7 -30 -4 -16 2 -30 8 -30 14 0 5 -14 14 -31 20 -35 12
-23 28 21 28 24 0 24 0 -8 30 -35 32 -35 50 1 50 16 0 18 3 9 9 -8 4 -13 12
-12 17 3 10 -12 19 -55 35 l-30 11 30 13 c25 11 27 15 13 20 -23 9 -23 25 -1
25 14 0 14 2 -2 20 -15 16 -15 22 -5 35 10 12 10 15 -2 15 -10 0 -15 12 -16
36 -1 20 -3 38 -5 40 -1 2 -13 -18 -27 -44 -13 -26 -31 -53 -39 -61 -12 -10
-13 -15 -4 -18 10 -3 10 -7 0 -18 -7 -7 -15 -11 -19 -8 -5 2 -8 0 -8 -6 0 -5
5 -13 10 -16 19 -12 -1 -25 -36 -25 l-35 0 25 -33 c32 -42 33 -57 2 -57 -13 0
-29 -6 -35 -13 -9 -11 -3 -18 29 -32 22 -10 40 -22 40 -26 0 -4 -17 -11 -37
-15 -41 -7 -97 -33 -74 -34 8 0 11 -6 7 -16 -4 -10 0 -15 12 -13 9 1 26 1 37
0 17 -2 15 -4 -10 -18 -16 -8 -38 -22 -47 -31 -19 -16 -25 -3 -7 15 11 11 0
38 -30 76 -11 13 -12 20 -3 29 16 16 15 28 -3 28 -8 0 -15 7 -15 15 0 8 7 15
17 15 15 0 15 1 -1 19 -9 10 -14 25 -11 33 4 9 -1 22 -9 31 -9 9 -16 22 -16
29 0 7 -4 19 -9 27 -7 11 -13 3 -22 -30 -6 -24 -12 -52 -11 -62 0 -10 -8 -21
-19 -26 -19 -6 -19 -8 -5 -20 20 -17 21 -32 2 -25 -11 4 -14 -1 -12 -20 2 -14
-1 -26 -5 -26 -5 0 -9 -7 -9 -15 0 -25 -29 -17 -29 8 0 12 -1 32 -1 45 0 12
-5 22 -11 22 -5 0 -8 4 -5 9 3 4 -1 28 -8 52 -9 29 -14 36 -15 22 -1 -13 -6
-23 -12 -23 -5 0 -8 -4 -5 -8 3 -5 -1 -20 -9 -35 -7 -14 -11 -28 -7 -31 3 -3
-2 -6 -11 -6 -18 0 -20 6 -19 53 0 15 -4 27 -9 27 -5 0 -9 15 -9 33 0 17 -5
39 -10 47 -8 12 -10 9 -10 -13 0 -16 -4 -26 -9 -23 -7 5 -17 -26 -23 -71 -1
-7 -5 -13 -10 -13 -4 0 -8 -10 -8 -22 0 -36 -16 -7 -30 55 -15 65 -39 107 -40
72 -1 -11 -3 -28 -6 -37 -2 -10 -6 -26 -8 -35 -3 -10 -5 -20 -6 -23 -1 -3 -2
-8 -1 -12 2 -12 -17 -9 -25 3 -3 6 -1 15 5 19 9 5 8 10 -3 19 -8 7 -13 18 -10
26 3 7 1 16 -5 20 -6 3 -8 17 -5 31 3 13 2 24 -4 24 -5 0 -13 -11 -16 -25 -4
-14 -11 -25 -16 -25 -5 0 -7 -7 -4 -15 4 -8 1 -15 -7 -15 -7 0 -10 -2 -7 -6 3
-3 0 -26 -6 -52 -9 -33 -18 -48 -32 -50 -14 -2 -16 -1 -5 6 11 8 10 12 -5 21
-16 9 -17 12 -4 21 10 6 11 10 3 10 -9 0 -10 7 -3 26 7 18 7 30 0 39 -5 6 -7
15 -3 18 3 4 -1 7 -9 7 -11 0 -14 6 -11 20 3 11 0 20 -6 20 -5 0 -8 7 -5 15 4
8 1 15 -5 15 -6 0 -8 7 -5 15 4 8 1 15 -6 15 -7 0 -10 7 -6 15 3 8 -1 21 -9
29 -8 8 -15 24 -15 35 0 39 -16 29 -30 -17 -7 -26 -12 -50 -12 -54 1 -5 -5 -8
-14 -8 -13 0 -14 -3 -5 -14 10 -12 8 -17 -9 -26 -17 -9 -19 -14 -10 -26 10
-11 9 -15 -3 -20 -9 -3 -14 -13 -11 -22 4 -13 2 -12 -10 3 -8 11 -19 25 -23
30 -4 6 -9 23 -11 40 -2 16 -8 33 -14 36 -5 3 -10 10 -10 15 0 14 -16 39 -21
34 -12 -14 -46 -103 -42 -111 3 -4 -4 -13 -15 -19 -11 -6 -18 -15 -15 -20 3
-5 1 -12 -5 -15 -8 -5 -7 -11 1 -21 9 -11 9 -14 -1 -14 -7 0 -10 -7 -6 -15 3
-8 1 -15 -4 -15 -5 0 -7 -7 -4 -15 4 -8 2 -15 -2 -15 -10 0 -25 31 -45 90
l-12 34 -20 -44 c-11 -25 -19 -51 -18 -57 1 -7 -2 -13 -8 -13 -5 0 -7 -10 -3
-22 5 -23 5 -23 -17 -4 -12 11 -19 26 -17 33 3 7 1 13 -5 13 -5 0 -9 6 -8 13
3 13 -27 87 -35 87 -3 0 -13 -25 -22 -55 -10 -30 -22 -55 -26 -55 -5 0 -6 -5
-3 -10 4 -6 1 -17 -5 -25 -7 -8 -10 -24 -7 -34 3 -12 -1 -22 -10 -25 -22 -9
-303 -7 -303 2 0 4 -11 20 -26 35 -14 15 -23 31 -20 35 3 5 -1 26 -9 48 l-13
39 -11 -27 c-11 -29 -31 -38 -31 -15 0 7 -9 31 -19 52 l-19 39 -13 -42 c-8
-30 -18 -42 -31 -42 -11 0 -18 7 -18 20 0 14 -7 20 -22 20 -22 1 -23 1 -4 15
12 9 15 15 7 15 -8 0 -11 6 -7 16 4 11 2 15 -8 11 -10 -4 -13 -1 -9 8 3 8 -2
18 -11 21 -9 3 -14 10 -11 14 3 4 -3 25 -12 46 l-16 39 -9 -42 c-5 -24 -14
-43 -20 -43 -7 0 -6 -6 2 -15 10 -12 10 -15 0 -15 -8 0 -11 -9 -8 -25 4 -18 1
-25 -10 -25 -12 0 -13 -3 -5 -11 8 -8 8 -18 1 -34 -9 -21 -12 -22 -39 -8 -16
8 -27 18 -24 23 3 4 -3 11 -13 15 -16 6 -16 7 1 16 21 12 23 39 1 39 -8 0 -13
4 -10 9 6 8 -23 92 -35 101 -3 3 -8 12 -11 20 -3 9 -22 -19 -46 -70 -27 -57
-37 -88 -31 -96 6 -8 4 -14 -6 -18 -9 -3 -13 -10 -10 -16 3 -6 -1 -7 -9 -4 -9
3 -16 2 -16 -4 0 -5 8 -13 17 -16 14 -6 15 -9 3 -16 -11 -7 -11 -11 -1 -24 11
-13 11 -16 -1 -16 -13 0 -18 16 -22 68 0 12 -4 22 -8 22 -5 0 -7 3 -6 8 1 4
-6 24 -15 46 -9 21 -17 46 -17 55 -1 42 -61 -108 -63 -156 -1 -18 -6 -33 -11
-33 -4 0 -6 9 -3 20 3 13 0 20 -10 20 -8 0 -11 5 -8 11 4 5 -3 19 -15 29 -12
10 -19 24 -15 29 3 6 1 11 -5 11 -7 0 -9 8 -5 20 4 11 2 20 -4 20 -6 0 -8 7
-5 15 4 8 1 15 -5 15 -6 0 -8 7 -5 15 4 8 1 15 -4 15 -6 0 -16 16 -23 35 -18
50 -34 44 -32 -12 1 -7 -3 -13 -7 -13 -4 0 -6 -13 -4 -30 2 -16 -1 -32 -6 -35
-5 -3 -7 -12 -3 -20 3 -8 0 -15 -7 -15 -10 0 -10 -3 0 -15 10 -12 9 -15 -6
-15 -14 0 -15 -3 -6 -12 16 -16 15 -28 -3 -28 -9 0 -12 -6 -9 -15 4 -8 2 -15
-4 -15 -15 0 -23 -42 -10 -57 6 -7 9 -13 7 -14 -37 -7 -40 -6 -46 22 -3 16
-10 32 -14 35 -5 3 -7 10 -4 15 4 5 2 9 -4 9 -5 0 -13 12 -18 27 -9 25 -10 24
-31 -31 -12 -32 -22 -66 -22 -77 0 -10 -5 -19 -10 -19 -6 0 -10 6 -9 13 3 26
-1 38 -12 31 -8 -4 -9 0 -4 15 4 14 2 21 -7 21 -10 0 -9 3 2 10 13 8 12 10 -3
10 -14 0 -16 4 -7 19 8 16 6 21 -11 26 -12 4 -18 12 -15 21 3 8 1 14 -5 14 -6
0 -8 3 -6 8 3 4 1 18 -5 31 -8 24 -9 24 -22 5 -8 -11 -16 -30 -18 -43 -1 -14
-9 -26 -16 -29 -7 -2 -10 2 -6 12 3 9 1 16 -6 16 -6 0 -8 5 -5 10 7 11 -25 90
-36 90 -4 0 -10 -13 -14 -30 -4 -16 -11 -30 -16 -30 -6 0 -8 -4 -4 -9 3 -5 -4
-16 -15 -24 -11 -7 -17 -17 -13 -21 10 -9 13 -38 6 -49 -3 -6 -14 5 -24 24
l-17 34 -12 -30 c-6 -16 -18 -43 -25 -59 -8 -16 -12 -32 -9 -37 3 -5 0 -9 -7
-9 -8 0 -8 -4 1 -15 10 -12 10 -15 0 -15 -10 0 -10 -3 0 -15 15 -18 10 -19
-65 -15 -41 2 -105 22 -105 33 0 2 10 3 21 4 12 1 29 9 38 17 9 8 31 18 50 23
l35 9 -47 22 c-26 12 -54 22 -64 22 -9 0 -13 3 -9 8 4 4 -9 12 -30 18 l-38 11
51 22 c40 19 49 27 46 42 -5 17 -21 24 -45 20 -5 0 -8 6 -8 14 0 8 -6 15 -14
15 -39 0 -20 22 41 50 37 17 82 44 98 59 17 16 48 40 70 55 22 14 63 54 90 89
28 34 57 63 65 64 13 3 78 -75 69 -80 -2 -2 -20 -10 -40 -19 -33 -15 -148
-108 -134 -108 20 0 89 38 137 76 47 37 63 44 101 44 51 0 116 31 192 91 28
22 77 58 109 81 l60 41 -24 -39 c-37 -61 -49 -74 -159 -174 -69 -62 -99 -96
-89 -98 22 -4 249 114 273 143 22 26 133 105 147 105 5 0 6 -9 3 -20 -8 -25
12 -34 48 -21 22 9 37 4 104 -34 43 -25 84 -45 91 -45 22 0 -85 142 -136 180
-52 39 -62 68 -38 105 11 17 14 37 9 74 -3 28 -2 51 2 51 4 0 34 -25 67 -55
32 -30 65 -55 73 -55 8 0 45 -42 83 -92 107 -144 164 -186 104 -77 -17 30 -33
65 -37 78 -7 23 -5 22 41 -10 27 -18 71 -53 97 -78 48 -45 56 -46 70 -6 2 6
24 -9 49 -32 25 -23 65 -53 89 -68 24 -15 55 -38 69 -50 29 -26 180 -106 180
-95 0 20 -68 89 -117 118 -91 54 -119 79 -169 153 -49 73 -63 87 -163 158 -33
24 -61 51 -61 59 0 11 32 87 47 111 1 2 22 -8 47 -22 52 -29 57 -21 21 38 -14
22 -25 47 -25 56 0 16 21 70 40 99 5 8 12 32 15 53 l6 37 37 -71 c38 -74 72
-107 147 -143 37 -19 131 -114 121 -124 -2 -2 -30 10 -61 27 -54 29 -85 38
-85 26 0 -26 50 -91 97 -127 32 -24 79 -63 105 -88 53 -51 73 -66 108 -80 58
-24 128 -65 172 -101 26 -22 54 -39 62 -39 8 0 46 -16 83 -36 l68 -36 -77 73
c-59 56 -84 88 -104 134 -14 33 -41 76 -61 96 -39 41 -39 67 -1 84 12 6 29 23
38 39 8 16 20 28 25 27 6 -1 35 -22 67 -47 41 -33 58 -54 62 -78 10 -50 227
-358 242 -343 2 2 -19 50 -47 106 -27 57 -49 105 -47 106 3 3 105 -71 209
-152 73 -56 268 -173 288 -173 9 1 -25 40 -81 94 -54 51 -98 96 -98 99 0 14
68 6 80 -9 8 -8 33 -27 57 -41 41 -23 46 -24 60 -10 15 14 15 18 -1 41 -9 14
-21 26 -26 26 -5 0 -18 13 -28 28 -20 27 -20 28 -1 67 10 22 21 54 25 72 3 18
12 37 20 44 10 8 15 5 20 -16 3 -14 12 -24 18 -22 7 3 19 -19 30 -57 9 -33 34
-83 54 -111 32 -44 37 -47 40 -27 2 12 6 22 10 22 4 0 52 -36 106 -80 136
-109 173 -134 205 -136 15 -1 64 -27 109 -58 46 -31 88 -56 94 -56 6 0 -47 60
-118 133 -72 72 -143 149 -158 169 -15 21 -57 53 -92 73 -54 30 -80 56 -160
155 -96 120 -126 150 -153 150 -8 0 -79 -43 -158 -95 l-145 -96 -91 62 c-51
35 -135 103 -187 152 -99 94 -184 157 -210 157 -18 0 -153 -76 -195 -109 l-28
-21 -25 22 c-13 13 -77 88 -142 168 -108 133 -215 240 -238 240 -5 0 -47 -33
-93 -74z m2711 -1145 c0 -11 17 -41 38 -68 45 -56 75 -168 50 -184 -33 -21
-58 -9 -92 44 -38 59 -86 152 -86 165 0 9 69 60 83 61 4 1 7 -8 7 -18z m-2860
-61 c0 -5 -7 -10 -16 -10 -8 0 -12 5 -9 10 3 6 10 10 16 10 5 0 9 -4 9 -10z
m1245 -50 c3 -5 1 -10 -4 -10 -6 0 -11 5 -11 10 0 6 2 10 4 10 3 0 8 -4 11
-10z m-615 -30 c0 -5 -7 -7 -15 -4 -8 4 -12 10 -9 15 6 11 24 2 24 -11z
m-2353 -32 c3 -28 -20 -44 -67 -46 -47 -3 -62 14 -20 23 16 4 33 11 36 16 3 6
16 14 28 19 11 5 21 9 21 9 1 1 1 -9 2 -21z m4355 -30 c-7 -7 -12 -8 -12 -2 0
14 12 26 19 19 2 -3 -1 -11 -7 -17z m-522 -17 c0 -5 2 -16 5 -23 4 -10 -8 -20
-37 -32 l-43 -17 33 -14 c17 -8 32 -18 32 -24 0 -19 -19 -21 -54 -4 -28 13
-33 19 -25 30 6 7 8 13 3 13 -5 1 -22 12 -39 26 l-30 26 43 -5 c23 -3 42 -1
42 3 0 5 12 13 28 18 35 13 42 14 42 3z m-3344 -28 c-3 -43 -21 -69 -38 -56
-7 6 -30 16 -51 23 -45 14 -42 19 26 41 69 22 66 23 63 -8z m3939 -3 c32 -33
27 -46 -21 -56 -27 -5 -31 -2 -42 30 -23 62 14 77 63 26z m-4391 -51 c-27 -30
-101 -71 -121 -67 -11 2 -2 11 29 28 31 16 43 27 35 32 -8 5 -6 8 6 8 9 0 17
5 17 10 0 6 12 10 27 10 26 0 26 0 7 -21z m2516 -24 c513 -75 946 -248 1360
-545 909 -651 1389 -1786 1224 -2895 -66 -444 -231 -878 -473 -1242 -377 -566
-922 -985 -1571 -1205 -518 -176 -1031 -208 -1565 -98 -565 116 -1117 415
-1536 830 -473 471 -772 1076 -871 1765 -8 57 -13 195 -13 380 1 248 4 310 23
430 137 876 616 1634 1337 2114 388 258 786 401 1330 477 173 24 552 19 755
-11z m2148 -12 c7 -32 7 -52 1 -60 -12 -13 -209 -124 -209 -116 0 2 29 46 63
96 35 51 67 100 70 110 4 11 17 17 36 17 27 0 30 -4 39 -47z m-1253 27 c-3 -5
-11 -10 -16 -10 -6 0 -7 5 -4 10 3 6 11 10 16 10 6 0 7 -4 4 -10z m898 -62
c27 -91 29 -114 12 -128 -13 -11 -15 -9 -15 11 -1 31 -32 100 -53 118 -24 19
-21 39 6 44 12 2 25 5 28 6 4 0 13 -23 22 -51z m92 -17 c-7 -31 -30 -58 -38
-44 -3 4 -8 22 -11 40 -7 29 -5 32 21 35 36 4 36 5 28 -31z m-235 7 c0 -22
-49 -118 -59 -118 -6 0 -16 -10 -22 -22 -10 -19 -8 -24 12 -41 19 -16 36 -18
92 -15 l68 4 -6 -26 c-3 -14 -20 -38 -36 -55 -27 -27 -36 -30 -93 -30 -74 0
-97 15 -127 80 -37 80 -17 174 46 215 35 23 125 28 125 8z m-3685 -43 c-30
-13 -59 -10 -49 6 3 5 22 9 42 8 l37 -1 -30 -13z m3755 -27 c35 -77 24 -97
-54 -98 -25 0 -27 3 -22 24 9 35 44 116 51 116 3 0 15 -19 25 -42z m-5187 -50
c9 -35 20 -79 23 -98 5 -34 4 -33 -21 15 -26 51 -45 145 -29 145 5 0 17 -28
27 -62z m5637 32 c0 -4 -10 -10 -23 -14 -40 -10 -114 -92 -138 -154 -27 -70
-36 -171 -19 -212 7 -17 28 -44 48 -61 47 -42 29 -35 -165 58 -146 70 -221
113 -195 113 39 0 111 105 112 162 0 37 35 57 43 26 4 -15 -1 -29 -18 -44 -14
-13 -22 -29 -19 -37 5 -15 100 -67 121 -67 24 0 23 21 -2 54 -26 34 -26 36 -9
59 29 38 236 143 257 130 4 -2 7 -8 7 -13z m166 -85 c19 -15 46 -44 61 -66 22
-33 25 -47 21 -98 -7 -102 -86 -188 -182 -198 -58 -7 -87 1 -126 33 -66 56
-81 139 -40 232 22 52 78 112 104 112 17 0 37 -105 34 -170 -3 -42 -1 -45 21
-45 13 0 29 8 34 17 11 16 9 25 -30 197 -6 23 -4 24 31 18 21 -3 53 -18 72
-32z m-451 -95 c12 -19 -12 -10 -31 11 -19 22 -19 22 3 10 12 -6 25 -16 28
-21z m-228 -116 c-3 -3 -12 -4 -19 -1 -8 3 -5 6 6 6 11 1 17 -2 13 -5z m1170
-291 c3 -10 17 -28 31 -40 25 -23 25 -23 3 -23 -39 0 -61 18 -61 50 0 33 17
40 27 13z m-87 -163 c0 -5 -7 -10 -15 -10 -8 0 -15 5 -15 10 0 6 7 10 15 10 8
0 15 -4 15 -10z m-6748 -122 c-7 -7 -12 -8 -12 -2 0 14 12 26 19 19 2 -3 -1
-11 -7 -17z m210 -70 c-7 -7 -12 -8 -12 -2 0 14 12 26 19 19 2 -3 -1 -11 -7
-17z m58 -18 c-27 -38 -46 -50 -30 -19 18 33 31 49 42 49 5 0 0 -13 -12 -30z
m-95 -10 c-20 -23 -36 -26 -32 -7 3 15 18 27 36 27 11 0 10 -5 -4 -20z m195
-56 c0 -16 -23 -44 -36 -44 -12 0 -12 4 2 25 15 23 34 34 34 19z m6594 -81 c8
-21 -22 -15 -34 6 -5 11 -10 22 -10 25 0 10 39 -18 44 -31z m-6469 -552 c-13
-45 -31 -116 -41 -157 -11 -49 -22 -74 -31 -74 -35 0 -153 33 -147 41 3 5 14
9 25 9 10 0 19 7 19 15 0 8 -9 15 -20 15 -21 0 -21 0 8 56 8 16 7 25 -1 33 -8
8 -8 11 2 11 7 0 11 6 8 13 -6 15 9 45 17 36 3 -3 8 -16 10 -30 2 -13 5 -25 5
-27 1 -1 15 11 31 28 17 17 43 33 58 34 19 2 28 10 30 25 2 11 8 21 14 21 6 0
8 3 5 7 -4 3 1 12 11 19 9 7 18 11 19 10 1 -1 -9 -39 -22 -85z m6880 -182 c49
-14 109 -74 159 -159 20 -33 36 -63 36 -66 0 -2 -54 -4 -120 -4 -116 0 -120 1
-125 23 -5 25 -35 204 -35 212 0 9 43 5 85 -6z m-347 -143 c104 -54 109 -186
10 -246 -20 -12 -51 -20 -76 -20 -36 0 -49 6 -83 38 -33 31 -42 46 -46 82 -11
110 102 194 195 146z m584 -261 c4 -49 9 -116 11 -148 l5 -58 -131 3 -132 3
-11 115 c-7 63 -12 130 -13 148 l-1 33 133 -3 132 -3 7 -90z m-727 -87 c31
-14 30 -6 50 -256 l17 -202 -43 -39 c-24 -22 -45 -34 -46 -28 -3 22 -10 537
-7 537 2 0 15 -5 29 -12z m-6994 -222 c-19 -18 -23 -19 -31 -6 -16 25 -11 38
18 48 35 12 43 -12 13 -42z m7687 24 l45 0 -7 -32 c-3 -18 -17 -54 -31 -80
-34 -68 -146 -211 -155 -201 -7 7 -50 278 -50 314 0 9 22 10 77 5 42 -3 96 -6
121 -6z m-7854 -287 c-19 -14 -34 -9 -34 13 0 8 -25 38 -56 67 l-57 53 29 40
29 41 53 -101 c48 -92 51 -102 36 -113z m7413 -96 c25 -28 33 -46 33 -73 0
-122 -141 -189 -220 -104 -53 57 -49 141 8 191 32 29 40 31 90 27 48 -4 60
-10 89 -41z m-6725 -805 c10 -63 28 -127 51 -179 l35 -81 -61 -27 c-39 -17
-63 -22 -65 -16 -2 6 -10 18 -18 25 -8 8 -14 19 -14 24 0 6 -11 33 -24 61
l-23 51 -6 -30 c-4 -16 -4 -37 -1 -45 9 -24 -5 -65 -22 -65 -11 0 -13 -6 -9
-20 11 -34 -2 -22 -34 33 -17 28 -40 64 -52 79 -23 28 -36 104 -17 92 8 -5 9
8 5 42 l-6 49 33 -64 c36 -71 61 -85 71 -41 3 15 5 31 4 36 -8 46 11 43 44 -8
15 -23 27 -36 27 -29 0 7 5 9 11 5 12 -7 6 75 -7 110 -4 11 -2 21 7 27 11 6
11 11 1 21 -18 18 -15 27 11 38 41 16 44 12 59 -88z m6381 12 c41 -21 157
-106 157 -115 0 -4 -12 -14 -26 -24 -25 -16 -27 -16 -53 8 -38 36 -85 57 -127
57 -30 0 -35 3 -29 18 3 9 9 29 12 45 6 31 21 34 66 11z m-5899 -1145 c-8 -13
-24 -1 -24 18 0 13 3 13 15 3 8 -7 12 -16 9 -21z m5299 -182 l47 -42 -39 -45
-38 -45 -35 30 c-19 17 -43 35 -54 41 -17 10 -16 14 21 57 22 26 42 46 45 46
3 0 26 -19 53 -42z m-4978 -107 c8 -13 -22 -80 -36 -80 -6 0 -7 5 -4 10 4 6 0
22 -9 35 -18 28 -20 39 -6 30 14 -9 12 19 -2 34 -9 9 -2 8 19 -3 17 -9 35 -21
38 -26z m5187 -67 l36 -29 -32 -39 -32 -38 -42 28 c-23 15 -42 31 -42 34 0 16
63 92 69 83 3 -6 23 -23 43 -39z m295 12 c23 -16 42 -32 43 -35 0 -3 -14 -22
-31 -43 l-30 -37 -44 37 -43 36 25 39 c15 21 29 37 32 36 3 -2 25 -16 48 -33z
m-728 -86 l46 -51 -43 -45 -44 -45 -53 52 -54 53 47 43 c26 24 49 43 51 44 3
0 25 -23 50 -51z m607 -77 l42 -38 -30 -33 -30 -33 -31 28 c-18 16 -36 32 -41
36 -8 7 32 78 44 78 3 -1 24 -18 46 -38z m-505 -267 l-36 -34 -37 36 -37 36
32 38 32 38 41 -40 42 -41 -37 -33z m376 77 l41 -39 -33 -38 -32 -39 -46 40
-46 39 37 38 c20 20 37 37 37 37 1 0 20 -17 42 -38z m-632 -102 l-39 -40 -42
41 -43 42 37 44 36 43 45 -45 45 -45 -39 -40z m417 -54 l37 -43 -34 -33 -34
-33 -40 36 -39 35 29 28 c16 15 29 34 29 41 0 21 13 14 52 -31z m410 -63 l37
-38 -38 -41 -38 -40 -43 39 -42 39 38 39 c21 22 41 39 44 39 3 0 22 -17 42
-37z m-597 -43 l39 -40 -35 -36 -36 -36 -44 41 -44 40 35 36 c18 19 37 35 40
35 3 0 24 -18 45 -40z m345 -65 l34 -35 -40 -34 -39 -34 -32 30 -32 31 32 38
c18 20 34 38 38 38 3 1 20 -15 39 -34z m-4446 -107 c6 -48 4 -55 -19 -75 -15
-13 -31 -23 -36 -23 -13 0 -2 57 17 87 8 12 14 31 14 43 0 42 17 18 24 -32z
m4289 -33 l38 -43 -42 -32 -41 -33 -36 36 -35 36 34 40 c19 21 36 39 39 39 3
0 22 -19 43 -43z m-2953 -298 c0 -12 -11 -87 -25 -167 -14 -80 -25 -158 -25
-175 -1 -25 -8 -33 -47 -53 -36 -18 -44 -19 -39 -7 3 9 15 70 26 136 20 118
53 283 66 327 7 23 7 23 25 -8 11 -17 19 -40 19 -53z m168 -140 c77 -94 126
-173 174 -276 69 -150 42 -116 -146 182 -58 93 -106 171 -106 173 0 12 24 -12
78 -79z m2022 -267 c0 -5 -4 -10 -10 -10 -5 0 -10 5 -10 10 0 6 5 10 10 10 6
0 10 -4 10 -10z m-2746 -132 c32 -45 15 -99 -35 -117 -56 -19 -62 -14 -30 27
21 26 29 44 25 59 -7 26 1 53 15 53 5 0 17 -10 25 -22z"/>
<path d="M8434 5780 c-63 -25 -84 -115 -39 -168 33 -39 74 -48 118 -27 78 37
75 166 -4 194 -37 13 -46 13 -75 1z"/>
<path d="M8513 4883 c-29 -5 -73 -58 -73 -86 0 -12 9 -37 20 -55 37 -61 108
-66 155 -10 61 73 -4 169 -102 151z"/>
<path d="M3958 9420 c-48 -36 -76 -50 -100 -50 -18 0 -41 -7 -52 -15 -17 -13
-17 -14 10 -21 16 -3 60 -15 97 -26 56 -16 71 -17 84 -7 13 12 13 15 -6 30
-12 10 -21 20 -21 22 0 3 14 29 32 56 17 28 29 53 26 56 -2 2 -34 -18 -70 -45z"/>
<path d="M6300 9386 c-16 -10 -30 -11 -42 -5 -9 5 -29 9 -45 9 l-28 -1 30 -16
c17 -9 41 -24 54 -34 23 -18 24 -18 51 11 15 17 35 30 43 30 9 0 19 5 22 10 9
15 -56 12 -85 -4z"/>
<path d="M3445 9299 c-56 -28 -68 -43 -28 -34 34 7 80 -11 122 -49 22 -19 24
-19 17 -2 -3 10 -1 24 4 32 9 9 5 17 -14 29 -14 10 -26 24 -26 31 0 19 -28 17
-75 -7z"/>
</g>
</svg>
